<svg version="1" xmlns="http://www.w3.org/2000/svg" width="933.333" height="933.333" viewBox="0 0 700.000000 700.000000"><path d="M338.8 42.5c-.2.2-5 .5-10.8.9-14.1.8-26.5 2.5-43.5 6-20.6 4.2-50.5 14.7-70.9 24.8-13.9 7-41.9 24-45.6 27.8-.3.3-3.4 2.7-7 5.5-3.6 2.7-7 5.4-7.6 6-.6.5-4 3.5-7.5 6.5-44.5 38.6-79.1 95.3-94 154.2-2.9 11.5-5.5 24.8-6.5 33.3-.3 2.2-.7 4.9-.9 6-2.4 11.6-2.3 56.1.1 72.5 2.3 16 3.7 24.4 5 30 .9 3.6 1.8 7.5 2 8.8.2 1.2 2 7.5 4 14C87 542.8 170.3 622 276 648.5c9.9 2.5 11.2 2.8 22 4.6 32.7 5.5 69.2 5.8 99 .9 3-.5 7.1-1.2 9-1.5 13-2.2 43.6-10.7 53.5-15 1.7-.7 6.2-2.5 10-4.1 10.8-4.3 31.9-15.3 43.3-22.4 10-6.3 31.8-22.2 35.3-25.8.9-.9 3.4-3.1 5.6-4.9 6.8-5.5 18.9-17.8 30.9-31.4 12.2-13.8 27.7-37 39.1-58.4 8.5-16.1 22.3-52.7 24.9-66.4.3-1.2 1.1-5.1 1.9-8.5.8-3.4 1.7-7.9 2-10.1.3-2.2.8-4.9 1-6.1 3.3-15.4 4.8-47.8 3.2-71.4-1-15.2-3.3-31.2-6.2-43.5-.8-3.3-1.7-7.1-1.9-8.5-1.6-9.1-10.9-36-18-52.1-8.6-19.5-23-43.6-36.5-60.9C545.9 100.8 479.3 60.5 403 47.1c-11.3-2-13.8-2.3-27-3.6-6.4-.6-36.7-1.4-37.2-1z"/></svg>