<?xml version="1.0" encoding="UTF-8" standalone="no"?>
<svg width="80px" height="49px" viewBox="0 0 80 49" version="1.1" xmlns="http://www.w3.org/2000/svg" xmlns:xlink="http://www.w3.org/1999/xlink">
    <!-- Generator: Sketch 47.1 (45422) - http://www.bohemiancoding.com/sketch -->
    <title>logo</title>
    <desc>Created with Sketch.</desc>
    <defs>
        <linearGradient x1="100%" y1="0%" x2="0%" y2="0%" id="linearGradient-1">
            <stop stop-color="#C0B07C" offset="0%"></stop>
            <stop stop-color="#C6B373" offset="52.2322147%"></stop>
            <stop stop-color="#CCB56B" offset="100%"></stop>
        </linearGradient>
    </defs>
    <g id="Page-1" stroke="none" stroke-width="1" fill="none" fill-rule="evenodd">
        <g id="1.0-Main-—-Klodt" transform="translate(-760.000000, -16.000000)" fill="url(#linearGradient-1)">
            <g id="Header" transform="translate(492.000000, 16.000000)">
                <g id="Group" transform="translate(268.000000, 0.000000)">
                    <path d="M59.9865178,0.159011594 L79.9457056,38.3889536 L74.2971777,38.3889536 L57.9639797,7.10402609 L41.4421523,38.3889536 L39.7970761,38.3889536 L59.9865178,0.159011594 Z M67.4926701,28.2712551 L57.0754112,28.2745014 C57.5334822,29.6947913 57.7653604,31.1615449 57.7653604,32.6481826 C57.7653604,41.4205014 49.7316548,48.5747043 39.7862741,48.737429 L39.7862741,48.741487 C39.7265787,48.741487 39.6674924,48.7400667 39.608,48.739458 C39.5519594,48.7400667 39.4963249,48.741487 39.4400812,48.741487 L39.4400812,48.7378348 C32.3409949,48.6357768 26.1497259,45.4060377 22.8023147,40.6498928 C24.1872893,40.5036029 25.532264,40.2225884 26.8238376,39.8188203 C29.2630254,44.3036899 33.9641421,47.2288783 39.6189645,47.2856899 C48.839066,47.2018928 56.310335,40.6685594 56.310335,32.6481826 C56.310335,29.3525014 54.9584569,26.8178928 54.9584569,26.8178928 L66.7330761,26.8164725 L67.4926701,28.2712551 Z M31.6239594,20.2107043 C31.6239594,20.2107043 23.2148223,25.3176609 25.3780711,35.9180957 C23.9204061,36.3527043 22.3805076,36.5943565 20.7878173,36.6130232 C18.8958376,30.3882986 21.3861929,23.9992261 27.4440609,19.9240087 C25.6781726,17.8363855 24.7151269,15.3240957 24.7151269,12.7635159 C24.7151269,6.15511014 31.1500508,0.287284058 39.7863959,0.287284058 C43.9549239,0.287284058 47.9368528,1.71832754 50.7801015,4.22513913 L50.0791878,5.55229855 C47.4867005,3.13029855 43.7350254,1.74125507 39.7863959,1.74125507 C33.751269,1.74125507 28.7559391,6.65058841 28.7559391,12.7635159 C28.7559391,15.2806754 29.5853807,17.6521536 31.1543147,19.6212841 L31.6239594,20.2107043 Z M33.6479797,5.28913913 C37.6471675,8.87395072 40.1675736,14.0744435 40.1675736,19.8525884 C40.1675736,30.5224145 31.5021929,39.4182986 20.5878782,39.4182986 C9.65386802,39.4182986 0.144832487,31.3916319 0.144832487,19.8525884 C0.144832487,8.32632754 9.6431066,0.287284058 20.5878782,0.287284058 C23.6498071,0.287284058 26.5497056,0.99397971 29.1332589,2.25154493 C28.689401,2.57111014 28.2656447,2.90974783 27.8642234,3.26664638 C25.636,2.28664638 23.1746802,1.74125507 20.5878782,1.74125507 C11.3497056,1.74125507 4.83803046,9.1994 4.83803046,19.8525884 C4.83803046,30.4140667 11.2755939,37.9643275 20.5878782,37.9643275 C30.3519391,37.9643275 38.7125482,30.0539217 38.7125482,19.8525884 C38.7125482,14.4636029 36.3442234,9.61757391 32.5937665,6.29693623 C32.9194518,5.93557391 33.271533,5.59835652 33.6479797,5.28913913 Z" id="logo"></path>
                </g>
            </g>
        </g>
    </g>
</svg>